Coordinates
version=1
nRows=16
nColumns=40
inDegrees=yes

Units are S.I. units (second, meters, Newtons, ...)
Angles are in degrees.

endheader
time	pelvis_tilt	pelvis_list	pelvis_rotation	pelvis_tx	pelvis_ty	pelvis_tz	hip_flexion_r	hip_adduction_r	hip_rotation_r	knee_angle_r	knee_angle_r_beta	ankle_angle_r	subtalar_angle_r	mtp_angle_r	hip_flexion_l	hip_adduction_l	hip_rotation_l	knee_angle_l	knee_angle_l_beta	ankle_angle_l	subtalar_angle_l	mtp_angle_l	lumbar_extension	lumbar_bending	lumbar_rotation	arm_flex_r	arm_add_r	arm_rot_r	elbow_flex_r	pro_sup_r	wrist_flex_r	wrist_dev_r	arm_flex_l	arm_add_l	arm_rot_l	elbow_flex_l	pro_sup_l	wrist_flex_l	wrist_dev_l
      1.29000000	     -2.33590439	     -1.28795960	     -3.63841590	      0.53134300	      0.87628074	     -1.01981126	     -7.06654245	      1.18839197	    -10.74589949	    -23.89983090	     -0.41713074	     12.51483465	      5.65268170	     -8.89130971	     34.52087513	      7.47459043	     15.97078906	    -24.16312265	     -0.42172605	      3.05075050	      5.01178642	     -2.21321588	     -3.55178731	      1.05324592	      4.68030982	      4.03159754	    -13.21715486	     -8.57308219	     53.45647795	     89.95437384	      0.00000000	      0.00000000	    -11.30925059	      5.40776420	     17.62483486	     21.40342348	     89.95437384	      0.00000000	      0.00000000
      1.30000000	     -2.26517734	     -1.18603294	     -3.96519554	      0.54385609	      0.87568557	     -1.02061645	     -7.68043832	      0.85065193	    -10.04202931	    -24.36565580	     -0.42526092	     11.43200235	      5.39901494	     -8.61757325	     34.11792218	      7.03668670	     15.03471453	    -24.98166898	     -0.43601238	      3.23919918	      6.78016382	     -1.87195768	     -3.44389743	      0.84524278	      4.96857858	      3.49888463	    -13.12250997	     -8.82303495	     53.78369799	     89.95437384	      0.00000000	      0.00000000	    -11.40771320	      5.42939723	     17.54950075	     21.35833301	     89.95437384	      0.00000000	      0.00000000
      1.31000000	     -2.45073953	     -1.02214883	     -4.03517120	      0.55644521	      0.87462518	     -1.02197865	     -7.99116859	      0.52324969	     -9.47413415	    -24.91189700	     -0.43479463	     10.74395136	      4.55784627	     -8.33905778	     33.88970332	      6.14893758	     13.12505171	    -25.55824764	     -0.44607557	      3.11292859	      9.29933696	     -1.17327635	     -2.99250246	      0.60743416	      4.89606478	      3.00065616	    -13.07244835	     -8.83334770	     53.90056177	     89.95437384	      0.00000000	      0.00000000	    -11.59516903	      5.44682710	     17.75110318	     21.43422977	     89.95437384	      0.00000000	      0.00000000
      1.32000000	     -2.60398320	     -0.96014420	     -4.21875752	      0.56908356	      0.87365749	     -1.02291821	     -8.23128392	      0.25864287	     -8.93062285	    -25.63736716	     -0.44745647	      9.97267056	      4.39036414	     -8.06898612	     33.80635176	      5.87894053	     12.68251226	    -26.41011273	     -0.46094342	      1.66974001	      9.47173830	     -0.80096938	     -2.58760833	      0.44911919	      4.90357341	      2.47307292	    -12.95243602	     -8.84523687	     53.95544766	     89.95437384	      0.00000000	      0.00000000	    -11.80274214	      5.47939731	     17.76206518	     21.60739457	     89.95437384	      0.00000000	      0.00000000
      1.33000000	     -2.81804205	     -0.87763570	     -4.35735686	      0.58140279	      0.87279205	     -1.02403756	     -8.22705334	     -0.00373327	     -8.31223944	    -26.56760519	     -0.46369218	      8.93117292	      3.93741768	     -7.74282959	     33.79544389	      5.58807579	     12.06786108	    -26.87801415	     -0.46910984	      0.11655537	      9.54036242	     -0.44926620	     -2.17000495	      0.27510449	      4.83962983	      2.00909725	    -12.80673996	     -8.94407154	     53.90172453	     89.95437384	      0.00000000	      0.00000000	    -11.92199529	      5.51805922	     17.82624585	     21.75689975	     89.95437384	      0.00000000	      0.00000000
      1.34000000	     -3.12604562	     -0.69605248	     -4.48121463	      0.59361950	      0.87210924	     -1.02529485	     -7.93700688	     -0.33384326	     -7.59534798	    -27.77045466	     -0.48468587	      7.50662996	      3.04465123	     -7.30979365	     33.92607851	      5.20738183	     11.30906219	    -27.37417261	     -0.47776944	     -1.26224022	      9.81130077	     -0.11864709	     -1.63692025	      0.00541201	      4.74457081	      1.55562183	    -12.53124455	     -9.10093416	     53.58558568	     89.95437384	      0.00000000	      0.00000000	    -11.86122788	      5.53128875	     18.00592780	     21.67682072	     89.95437384	      0.00000000	      0.00000000
      1.35000000	     -3.24687387	     -0.42161556	     -4.46734040	      0.60609642	      0.87186142	     -1.02689067	     -7.67260914	     -0.81110354	     -7.22054935	    -29.27291615	     -0.51090877	      6.04914989	      2.25284446	     -6.85943167	     33.99493705	      4.86972300	     11.05487676	    -28.51226067	     -0.49763283	     -2.34357553	      9.87254771	      0.08644334	     -1.32629075	     -0.36309864	      4.45816195	      1.09060498	    -12.24333323	     -9.24636242	     53.23541246	     89.95437384	      0.00000000	      0.00000000	    -11.82181071	      5.58165008	     18.07943331	     21.74868804	     89.95437384	      0.00000000	      0.00000000
      1.36000000	     -3.70645185	     -0.04733512	     -4.49267360	      0.61819513	      0.87139004	     -1.02861032	     -6.65862493	     -1.29131037	     -6.66372145	    -31.32810091	     -0.54677851	      4.09934063	      0.46565931	     -6.13854423	     34.47275138	      4.41502788	     10.72988106	    -29.83250770	     -0.52067548	     -2.32237511	     11.35986957	      0.54527215	     -0.67081486	     -0.80008435	      4.21140545	      0.55367227	    -11.91863399	     -9.51151395	     52.84309454	     89.95437384	      0.00000000	      0.00000000	    -11.58303220	      5.57847557	     18.63621491	     21.55312524	     89.95437384	      0.00000000	      0.00000000
      1.37000000	     -3.68196673	      0.26699502	     -4.44460511	      0.63065341	      0.87185595	     -1.02990098	     -6.07185735	     -1.83326455	     -6.69652321	    -33.38990199	     -0.58276373	      1.63471822	     -0.35710090	     -5.51305310	     34.34131264	      4.11399241	     10.97399293	    -31.13251107	     -0.54336482	     -1.73783796	     11.91269702	      0.69935587	     -0.55397213	     -1.27625986	      3.85226800	      0.10952241	    -11.50750436	     -9.68255387	     52.27564463	     89.95437384	      0.00000000	      0.00000000	    -11.37593849	      5.72984450	     18.67620486	     21.61707843	     89.95437384	      0.00000000	      0.00000000
      1.38000000	     -3.54390361	      0.56311570	     -4.43339536	      0.64292097	      0.87265621	     -1.03134265	     -5.29241932	     -2.42448422	     -6.93637367	    -35.86755919	     -0.62600700	     -1.10093261	     -1.34842679	     -4.84116460	     33.85139757	      3.52370263	     10.42634211	    -31.95133898	     -0.55765607	     -1.32295908	     11.87187758	      0.80052119	     -0.59486299	     -1.70587231	      3.47580074	     -0.22361143	    -11.12552818	     -9.88412947	     51.49329446	     89.95437384	      0.00000000	      0.00000000	    -11.08518295	      5.89191627	     18.56445948	     21.66036868	     89.95437384	      0.00000000	      0.00000000
      1.39000000	     -3.57119829	      1.18237255	     -4.07014405	      0.65540176	      0.87350942	     -1.03332193	     -4.31996453	     -3.22757355	     -7.29568039	    -38.22098797	     -0.66708208	     -4.76996230	     -4.20739410	     -3.44472197	     33.24119764	      2.10626628	      9.17172233	    -32.12386726	     -0.56066725	     -0.88070057	     12.90470897	      1.42337955	     -0.42375498	     -2.50012741	      2.71930177	     -0.69096245	    -10.62596926	    -10.08888988	     50.70339049	     89.95437384	      0.00000000	      0.00000000	    -10.71442839	      6.10632428	     18.68376416	     21.51424242	     89.95437384	      0.00000000	      0.00000000
      1.40000000	     -3.34712712	      1.49134756	     -3.95678198	      0.66784759	      0.87475032	     -1.03476673	     -3.51297326	     -3.89367910	     -7.68373809	    -40.52631359	     -0.70731761	     -8.56557473	     -4.82665509	     -2.52995941	     32.43136786	      1.49062393	      8.94765832	    -32.73683812	     -0.57136561	      0.22805567	     12.89601344	      1.53323478	     -0.53533676	     -2.95097424	      2.19151019	     -1.02250407	    -10.30346228	    -10.04895785	     49.70282586	     89.95437384	      0.00000000	      0.00000000	    -10.31608279	      6.34364273	     18.44941887	     21.51804209	     89.95437384	      0.00000000	      0.00000000
      1.41000000	     -3.19063471	      1.85145648	     -3.67547442	      0.67988220	      0.87603779	     -1.03656641	     -2.56228249	     -4.48678712	     -7.88963731	    -42.82945159	     -0.74751495	    -12.36921962	     -6.21271255	     -1.41477903	     31.56660634	      0.66801817	      8.50503612	    -33.01254106	     -0.57617754	      1.09704879	     13.44158850	      1.82864829	     -0.64939692	     -3.43381303	      1.47722281	     -1.35875166	     -9.94627430	    -10.06689535	     48.69899808	     89.95437384	      0.00000000	      0.00000000	     -9.81888246	      6.60404634	     18.20905538	     21.51626612	     89.95437384	      0.00000000	      0.00000000
      1.42000000	     -2.97873187	      1.98038740	     -3.38258933	      0.69119061	      0.87748483	     -1.03828951	     -1.54664466	     -4.73534127	     -7.75484277	    -45.38414023	     -0.79210268	    -14.38525304	     -7.08206954	     -0.77002613	     30.59669442	      0.14608336	      8.11629631	    -33.15552454	     -0.57867307	      1.69108009	     13.14736422	      1.92435165	     -0.93658718	     -3.64822377	      0.73825199	     -1.53404702	     -9.67900522	     -9.99444737	     47.56420213	     89.95437384	      0.00000000	      0.00000000	     -9.19125569	      6.84212276	     17.91763327	     21.61000287	     89.95437384	      0.00000000	      0.00000000
      1.43000000	     -3.15203963	      2.34858832	     -2.96601845	      0.70215894	      0.87849195	     -1.04017833	      0.10457611	     -5.14191719	     -7.58931148	    -48.19489435	     -0.84115959	    -16.69773516	     -9.77615242	      0.87450243	     29.95792608	     -0.59043612	      8.06568863	    -33.01664579	     -0.57624918	      2.27135431	     13.31406099	      2.48613849	     -0.80903737	     -4.10048494	     -0.12840247	     -1.85653373	     -9.38034064	     -9.92814441	     46.53070163	     89.95437384	      0.00000000	      0.00000000	     -8.59730961	      7.16170698	     17.56320251	     21.75059863	     89.95437384	      0.00000000	      0.00000000
      1.44000000	     -3.19461825	      2.60211240	     -2.71886958	      0.71261588	      0.87965301	     -1.04174189	      1.78398841	     -5.51629688	     -7.46872718	    -51.13059428	     -0.89239722	    -18.03496516	    -11.31626820	      2.01936927	     29.12204848	     -1.03816107	      8.25452580	    -32.86752893	     -0.57364660	      3.15454525	     12.78302002	      2.70832118	     -0.88779536	     -4.41594845	     -0.84083199	     -2.05233061	     -9.11140194	     -9.76647037	     45.36866314	     89.95437384	      0.00000000	      0.00000000	     -7.86516354	      7.47948344	     17.21100249	     21.90081373	     89.95437384	      0.00000000	      0.00000000
